<?xml version="1.0" encoding="iso-8859-1"?>
<!-- Generator: Adobe Illustrator 17.1.0, SVG Export Plug-In . SVG Version: 6.00 Build 0)  -->
<!DOCTYPE svg PUBLIC "-//W3C//DTD SVG 1.1//EN" "http://www.w3.org/Graphics/SVG/1.1/DTD/svg11.dtd">
<svg xmlns="http://www.w3.org/2000/svg" xmlns:xlink="http://www.w3.org/1999/xlink" version="1.1" id="Capa_1" x="0px" y="0px" viewBox="0 0 411.108 411.108" style="enable-background:new 0 0 411.108 411.108;" xml:space="preserve" width="512px" height="512px">
<path d="M382.108,137.417H292.69c-10.477,0-19-8.523-19-19V29c0-15.991-13.01-29-29-29h-78.273c-15.991,0-29,13.009-29,29v89.417  c0,10.477-8.523,19-19,19H29c-15.991,0-29,13.009-29,29v78.273c0,15.991,13.009,29,29,29h89.417c10.477,0,19,8.523,19,19v89.417  c0,15.991,13.009,29,29,29h78.273c15.99,0,29-13.009,29-29v-89.417c0-10.477,8.523-19,19-19h89.418c15.99,0,29-13.009,29-29v-78.273  C411.108,150.427,398.099,137.417,382.108,137.417z M92.889,243.597c0,2.75-1.828,3.688-4.063,2.085l-51.875-37.214  c-2.234-1.603-2.234-4.226,0-5.829l51.875-37.214c2.234-1.603,4.063-0.665,4.063,2.085V243.597z M165.425,88.827l37.214-51.875  c1.603-2.234,4.226-2.234,5.829,0l37.214,51.875c1.603,2.234,0.665,4.063-2.085,4.063H167.51  C164.76,92.889,163.822,91.061,165.425,88.827z M245.683,322.281l-37.214,51.875c-1.603,2.234-4.226,2.234-5.829,0l-37.214-51.875  c-1.603-2.234-0.665-4.063,2.085-4.063h76.087C246.347,318.219,247.286,320.047,245.683,322.281z M205.554,252.554  c-25.957,0-47-21.043-47-47c0-25.957,21.043-47,47-47c25.957,0,47,21.043,47,47C252.554,231.511,231.511,252.554,205.554,252.554z   M374.156,208.469l-51.875,37.214c-2.234,1.603-4.063,0.665-4.063-2.085V167.51c0-2.75,1.828-3.688,4.063-2.085l51.875,37.214  C376.39,204.242,376.39,206.865,374.156,208.469z" fill="#FFFFFF"/>
<g>
</g>
<g>
</g>
<g>
</g>
<g>
</g>
<g>
</g>
<g>
</g>
<g>
</g>
<g>
</g>
<g>
</g>
<g>
</g>
<g>
</g>
<g>
</g>
<g>
</g>
<g>
</g>
<g>
</g>
</svg>
